<svg id="Layer_1" data-name="Layer 1" xmlns="http://www.w3.org/2000/svg" viewBox="0 0 395.49 201.41"><defs><style>.cls-1{fill:#69b4c7;}</style></defs><title>bb-header-logo</title><g id="_Group_" data-name="&lt;Group&gt;"><g id="_Group_2" data-name="&lt;Group&gt;"><path id="_Path_" data-name="&lt;Path&gt;" class="cls-1" d="M286,248.3h-16.6a2.1,2.1,0,1,0,0,1.29H286V248.3Z" transform="translate(-231.04 -242.38)"/><path id="_Path_2" data-name="&lt;Path&gt;" class="cls-1" d="M591.14,246.85a2.09,2.09,0,0,0-2,1.46h-16.6v1.29h16.6A2.1,2.1,0,1,0,591.14,246.85Z" transform="translate(-231.04 -242.38)"/><g id="_Group_3" data-name="&lt;Group&gt;"><g id="_Group_4" data-name="&lt;Group&gt;"><path id="_Compound_Path_" data-name="&lt;Compound Path&gt;" class="cls-1" d="M300.73,249.22v0a6.69,6.69,0,0,1,6.86-6.8,6.79,6.79,0,0,1,5.19,2l-1.84,2.12a4.85,4.85,0,0,0-3.36-1.48,3.9,3.9,0,0,0-3.81,4.1v0a3.91,3.91,0,0,0,3.81,4.13,4.75,4.75,0,0,0,3.46-1.54l1.84,1.86a6.72,6.72,0,0,1-5.39,2.35A6.64,6.64,0,0,1,300.73,249.22Z" transform="translate(-231.04 -242.38)"/></g><g id="_Group_5" data-name="&lt;Group&gt;"><path id="_Compound_Path_2" data-name="&lt;Compound Path&gt;" class="cls-1" d="M320.6,242.6h2.89v5.21h5.34V242.6h2.89v13.15h-2.89v-5.28h-5.34v5.28H320.6V242.6Z" transform="translate(-231.04 -242.38)"/></g><g id="_Group_6" data-name="&lt;Group&gt;"><path id="_Compound_Path_3" data-name="&lt;Compound Path&gt;" class="cls-1" d="M339.77,242.6h6a5.24,5.24,0,0,1,3.83,1.33,4.13,4.13,0,0,1,1.13,3v0a4.08,4.08,0,0,1-2.82,4.08l3.21,4.7h-3.38l-2.82-4.21h-2.27v4.21h-2.89V242.6Zm5.83,6.39c1.41,0,2.22-.75,2.22-1.86v0c0-1.24-.86-1.88-2.27-1.88h-2.87V249h2.93Z" transform="translate(-231.04 -242.38)"/></g><g id="_Group_7" data-name="&lt;Group&gt;"><path id="_Compound_Path_4" data-name="&lt;Compound Path&gt;" class="cls-1" d="M358.14,242.6H361v13.15h-2.89V242.6Z" transform="translate(-231.04 -242.38)"/></g><g id="_Group_8" data-name="&lt;Group&gt;"><path id="_Compound_Path_5" data-name="&lt;Compound Path&gt;" class="cls-1" d="M368.19,253.84l1.71-2a6,6,0,0,0,3.93,1.6c1.18,0,1.9-.47,1.9-1.24v0c0-.73-0.45-1.11-2.65-1.67-2.65-.68-4.36-1.41-4.36-4v0c0-2.39,1.92-4,4.6-4a7.61,7.61,0,0,1,4.89,1.67l-1.5,2.18a6.17,6.17,0,0,0-3.42-1.3c-1.11,0-1.69.51-1.69,1.15v0c0,0.86.56,1.15,2.84,1.73,2.67,0.7,4.17,1.65,4.17,3.95v0c0,2.61-2,4.08-4.83,4.08A8.37,8.37,0,0,1,368.19,253.84Z" transform="translate(-231.04 -242.38)"/></g><g id="_Group_9" data-name="&lt;Group&gt;"><path id="_Compound_Path_6" data-name="&lt;Compound Path&gt;" class="cls-1" d="M388,245.27h-4V242.6h10.9v2.67h-4v10.49H388V245.27Z" transform="translate(-231.04 -242.38)"/></g><g id="_Group_10" data-name="&lt;Group&gt;"><path id="_Compound_Path_7" data-name="&lt;Compound Path&gt;" class="cls-1" d="M405,250.57l-5.05-8h3.38l3.14,5.28,3.19-5.28h3.29l-5.05,7.91v5.24H405v-5.19Z" transform="translate(-231.04 -242.38)"/></g><g id="_Group_11" data-name="&lt;Group&gt;"><g id="_Group_12" data-name="&lt;Group&gt;"><path id="_Compound_Path_8" data-name="&lt;Compound Path&gt;" class="cls-1" d="M432.87,242.6H436l2.72,8.91,3-8.94h2.48l3,8.94,2.72-8.91h3l-4.49,13.25h-2.52l-3-8.61-3,8.61h-2.52Z" transform="translate(-231.04 -242.38)"/></g><g id="_Group_13" data-name="&lt;Group&gt;"><path id="_Compound_Path_9" data-name="&lt;Compound Path&gt;" class="cls-1" d="M460,242.6h6a5.24,5.24,0,0,1,3.83,1.33,4.13,4.13,0,0,1,1.13,3v0a4.08,4.08,0,0,1-2.82,4.08l3.21,4.7H468l-2.82-4.21h-2.27v4.21H460V242.6Zm5.83,6.39c1.41,0,2.22-.75,2.22-1.86v0c0-1.24-.86-1.88-2.27-1.88h-2.87V249h2.93Z" transform="translate(-231.04 -242.38)"/></g><g id="_Group_14" data-name="&lt;Group&gt;"><path id="_Compound_Path_10" data-name="&lt;Compound Path&gt;" class="cls-1" d="M477.78,242.6h2.89v13.15h-2.89V242.6Z" transform="translate(-231.04 -242.38)"/></g><g id="_Group_15" data-name="&lt;Group&gt;"><path id="_Compound_Path_11" data-name="&lt;Compound Path&gt;" class="cls-1" d="M486.83,249.22v0a6.75,6.75,0,0,1,6.9-6.8,7.22,7.22,0,0,1,5.17,1.8l-1.82,2.2a4.84,4.84,0,0,0-3.44-1.33,4,4,0,0,0-3.78,4.1v0a3.94,3.94,0,0,0,4,4.17,4.62,4.62,0,0,0,2.72-.79v-1.88h-2.91v-2.5h5.71v5.71a8.54,8.54,0,0,1-5.62,2.09A6.58,6.58,0,0,1,486.83,249.22Z" transform="translate(-231.04 -242.38)"/></g><g id="_Group_16" data-name="&lt;Group&gt;"><path id="_Compound_Path_12" data-name="&lt;Compound Path&gt;" class="cls-1" d="M506.59,242.6h2.89v5.21h5.34V242.6h2.89v13.15h-2.89v-5.28h-5.34v5.28h-2.89V242.6Z" transform="translate(-231.04 -242.38)"/></g><g id="_Group_17" data-name="&lt;Group&gt;"><path id="_Compound_Path_13" data-name="&lt;Compound Path&gt;" class="cls-1" d="M528.83,245.27h-4V242.6h10.9v2.67h-4v10.49h-2.89V245.27Z" transform="translate(-231.04 -242.38)"/></g><g id="_Group_18" data-name="&lt;Group&gt;"><path id="_Compound_Path_14" data-name="&lt;Compound Path&gt;" class="cls-1" d="M549.19,253.84l1.71-2a6,6,0,0,0,3.93,1.6c1.18,0,1.9-.47,1.9-1.24v0c0-.73-0.45-1.11-2.65-1.67-2.65-.68-4.36-1.41-4.36-4v0c0-2.39,1.92-4,4.6-4a7.61,7.61,0,0,1,4.89,1.67l-1.5,2.18a6.17,6.17,0,0,0-3.42-1.3c-1.11,0-1.69.51-1.69,1.15v0c0,0.86.56,1.15,2.84,1.73,2.67,0.7,4.17,1.65,4.17,3.95v0c0,2.61-2,4.08-4.83,4.08A8.37,8.37,0,0,1,549.19,253.84Z" transform="translate(-231.04 -242.38)"/></g><g id="_Group_19" data-name="&lt;Group&gt;"><g id="_Group_20" data-name="&lt;Group&gt;"><path id="_Compound_Path_15" data-name="&lt;Compound Path&gt;" class="cls-1" d="M542,243.45a1.32,1.32,0,0,1,.31-0.61,1.38,1.38,0,0,1,.59-0.39,1.35,1.35,0,0,1,.73,0,1.42,1.42,0,0,1,1.09.87,2.45,2.45,0,0,1,.13,1.48,2.57,2.57,0,0,1-.35.84,2.68,2.68,0,0,1-.7.73,3.14,3.14,0,0,1-1.09.49,4.48,4.48,0,0,1-1.45.11l0.09-.41a1.39,1.39,0,0,0,.92-0.5,2.33,2.33,0,0,0,.44-1l0-.13A1.24,1.24,0,0,1,542,243.45Z" transform="translate(-231.04 -242.38)"/></g></g></g></g></g><g id="_Group_21" data-name="&lt;Group&gt;"><path id="_Compound_Path_16" data-name="&lt;Compound Path&gt;" class="cls-1" d="M569.75,378.89c-11.67,0-24,11.95-24,27.25a13.38,13.38,0,0,0,.17,2.13c-1.25,3.07-3.19,6.26-5.86,6.24-4.72,0-5.15-3.77-3-8.7l8.61-19.73s3.58-8.4-7.51-7.66a1.28,1.28,0,0,0-1.38,1c-2.9,10.75-9.39,23.85-10.44,28.65-1.89,3-4.95,6.36-9.19,6.4-4.72,0-5.15-3.77-3-8.7l8.61-19.73s3.58-8.4-7.51-7.66a1.28,1.28,0,0,0-1.38,1c-3,11.1-9.83,24.72-10.52,29.1-1.1,6.9,4,10.53,9.41,10.53s9.89-1.28,13.69-6.3h0c1.1,4.15,5.07,6.31,9.25,6.31a12.44,12.44,0,0,0,11.58-6.95c3,5.67,9.72,8.34,16.4,8.34,10.48,0,16.18-10.9,16.73-13.6,0-.12.06-0.37-0.12-0.39s-0.64-.12-0.89-0.17a0.32,0.32,0,0,0-.33.25c-2.42,5.56-10.28,9.22-16.16,8.19-6.34-1.12-7.45-4.68-6-12.2,6.42,0.42,25.44.22,25.44-11.46C582.29,382.56,575.65,378.89,569.75,378.89Zm4.47,12.65c-0.68,2.3-2.56,7.2-16.55,7.2,2.07-7.67,7.48-14.25,13.23-14.25C573.65,384.48,575.12,388.46,574.22,391.53Z" transform="translate(-231.04 -242.38)"/></g><g id="_Group_22" data-name="&lt;Group&gt;"><path id="_Compound_Path_17" data-name="&lt;Compound Path&gt;" class="cls-1" d="M368.17,377.81c-14.54-2.56-25.79,11.26-25.79,25.31,0,6.2,3,16,17,16,14.52,0,18.44-17,19-19.33C380.92,389.61,377,379.36,368.17,377.81Zm-0.61,23.65c-2.95,8.18-7.49,12.92-11.6,11.24s-4.53-9-1.59-17.21,8.3-13.89,12.41-12.21S370.5,393.28,367.55,401.46Z" transform="translate(-231.04 -242.38)"/></g><g id="_Group_23" data-name="&lt;Group&gt;"><path id="_Compound_Path_18" data-name="&lt;Compound Path&gt;" class="cls-1" d="M344.21,380.77c3.4-10.65-4.78-24.31-28.67-25.37-20.9-.93-40.89,11-42.82,21.3-1.05,5.62,2.4,10,8.55,10.66,6.91,0.7,10.66-5.27,9.37-9.72,0,0-.26.59-3.25,0.59a2.77,2.77,0,0,1-2.57-3.11c0.37-7.08,7.81-11.32,17.72-13.14-5.83,15.93-25.9,56.41-26.59,62.49-0.73,6.41,4.34,9.12,10.29,10.33A73.77,73.77,0,0,0,318,433.37c12.53-4.07,19-12.6,19.82-17.34,2.16-12.14-8.77-19.37-14.58-20C325.3,396.23,339.06,396.89,344.21,380.77Zm-19.85,35.87c-4.76,12.62-18.19,13.43-28.94,12.57a26.76,26.76,0,0,1-4.13-.63,2.59,2.59,0,0,1-2-2.53,12.73,12.73,0,0,1,1.26-4.3l10-22.44c3.35,0,7.49.14,9.84,0.2C319.1,399.72,327.62,408,324.35,416.64Zm-20.65-24.3L315.41,365s1.06-3.4.45-4.08c7.74,0.05,11.6,1.55,14,4.52s3.07,6.85,1.53,12.76C327.89,391.72,311.64,391.95,303.7,392.34Z" transform="translate(-231.04 -242.38)"/></g><path id="_Compound_Path_19" data-name="&lt;Compound Path&gt;" class="cls-1" d="M268.39,304.42c3.16-2.61,5.78-7.17,5.78-15.64,0-13.49-7.85-20.92-22.11-20.92H231v77.54h23.34C269.8,345.39,277,338,277,322,277,312.3,273,307.13,268.39,304.42Zm-22.94,6.93h8.8c5.27,0,8.31,1.68,8.31,10.25,0,10.25-3.34,11-8.44,11h-8.68V311.35Zm7-12.11h-7V280.74h7c5.22,0,7.7,1.32,7.7,8.81C260.13,297.75,257.53,299.24,252.42,299.24Z" transform="translate(-231.04 -242.38)"/><path id="_Path_3" data-name="&lt;Path&gt;" class="cls-1" d="M314.89,323c0,7.3-.89,10.14-7.58,10.14-6.51,0-7.7-3.13-7.7-10.14V267.86H285.33v55.07c0,14.91,6.92,23.46,22,23.46,14.91,0,21.74-8.63,21.74-23.68V267.86H314.89V323Z" transform="translate(-231.04 -242.38)"/><path id="_Path_4" data-name="&lt;Path&gt;" class="cls-1" d="M360.38,279.79c4.75,0,7.91,2.55,9.4,7.58l0.82,2.77,11.79-4.46-0.75-2.41c-3.22-10.34-11-16-21.87-16-12.71,0-21.26,8.23-21.26,20.48,0,13.22,9.14,18.86,17.2,23.84,7.44,4.6,12,7.74,12,14.07,0,6-2.34,8.59-7.83,8.59-5,0-8.35-3.07-9.86-9.13l-0.68-2.75-12.23,3.75,0.47,2.38c2.23,11.29,10.78,18.3,22.31,18.3,13.64,0,22.11-8.48,22.11-22.13,0-13.39-9.66-19.38-17.42-24.19C357.43,296,353,293,353,287.27,353,282,355.24,279.79,360.38,279.79Z" transform="translate(-231.04 -242.38)"/><rect id="_Path_5" data-name="&lt;Path&gt;" class="cls-1" x="161.26" y="25.21" width="14.78" height="77.54"/><path id="_Path_6" data-name="&lt;Path&gt;" class="cls-1" d="M553.66,279.66c4.75,0,7.91,2.55,9.4,7.58l0.82,2.77,11.79-4.46-0.75-2.41c-3.22-10.34-11-16-21.87-16-12.71,0-21.26,8.23-21.26,20.48,0,13.22,9.14,18.86,17.2,23.84,7.44,4.6,12,7.74,12,14.07,0,6-2.34,8.59-7.83,8.59-5,0-8.35-3.07-9.86-9.13l-0.68-2.75L530.39,326l0.47,2.38c2.23,11.29,10.78,18.3,22.31,18.3,13.64,0,22.11-8.48,22.11-22.13,0-13.39-9.66-19.38-17.42-24.19-7.16-4.44-11.55-7.45-11.55-13.16C546.32,281.9,548.51,279.66,553.66,279.66Z" transform="translate(-231.04 -242.38)"/><path id="_Path_7" data-name="&lt;Path&gt;" class="cls-1" d="M608.73,300.06c-7.16-4.44-11.55-7.45-11.55-13.16,0-5.25,2.19-7.48,7.34-7.48,4.75,0,7.91,2.55,9.4,7.58l0.82,2.77,11.79-4.46-0.75-2.41c-3.22-10.34-11-16-21.87-16-12.71,0-21.26,8.23-21.26,20.48,0,13.22,9.14,18.86,17.2,23.84,7.44,4.6,12,7.74,12,14.07,0,6-2.34,8.59-7.83,8.59-5,0-8.35-3.07-9.86-9.13L593.48,322l-12.23,3.75,0.47,2.38c2.23,11.29,10.78,18.3,22.31,18.3,13.64,0,22.11-8.48,22.11-22.13C626.14,310.86,616.49,304.87,608.73,300.06Z" transform="translate(-231.04 -242.38)"/><path id="_Path_8" data-name="&lt;Path&gt;" class="cls-1" d="M497.68,332.51v-21h20.9V299.24h-20.9V280.85h26.15v-13H483v63.89c8.13,1.8,13.39,6.06,15.52,13.65h26.63V332.51h-27.5Z" transform="translate(-231.04 -242.38)"/><path id="_Path_9" data-name="&lt;Path&gt;" class="cls-1" d="M468.24,331.84v-64H454.68v42.75l-22-42.75H421.32v77.54H435V301.56l22.28,43.53C458.87,338.6,462.66,333.86,468.24,331.84Z" transform="translate(-231.04 -242.38)"/><path id="_Compound_Path_20" data-name="&lt;Compound Path&gt;" class="cls-1" d="M499.65,378.93a1.28,1.28,0,0,0-1.38,1c-0.4,1.48-.88,3-1.4,4.56a7,7,0,0,0-4.52-4.22,18.58,18.58,0,0,0-9.21,0c-7,1.7-13.26,7.37-16.1,15.25a28.31,28.31,0,0,0-1.77,13.12c-1.13,2.25-3.45,5.69-7.19,5.86-4.72.22-5.15-3.77-3-8.7l8.61-19.73s3.58-8.4-7.51-7.66a1.28,1.28,0,0,0-1.38,1c-2.65,9.82-8.25,21.63-10,27.24h0s-2.53,7.56-8.11,7.81c-4.72.22-4.15-3.77-2-8.7l13.58-33.3c6,1.19,12.17,1.86,12.17,1.86,29.43,2.51,33.54-15.47,33.54-20.88,0-9.12-7.26-17.16-15.83-17.16-6.07,0-14,3.23-14,11.46a7.72,7.72,0,0,0,4,7s0.79-5.81,6.38-5.81c4.89,0,6.31,3.23,6.31,6.52,0,9.06-13.8,12.2-20.56,12.2a40.44,40.44,0,0,1-9.44-1.25l3.86-8.45a8.42,8.42,0,0,0,.81-2.83c0.08-1.83-.21-4.52-3.46-4.52h-3c-1.75,0-3.09.28-3.46,1.76-0.33,1.3-4,10.48-4.22,11.1-2.9,0-17.8-10.09-30.08-10.09-12.45,0-15.89,6.89-16.91,12.16-0.74,3.8,1,5.36,1,5.36,2.6-5.35,8.67-7.43,14.45-7.93,9.54-.82,23.82,5.51,28.88,6.92-6.85,16.35-14.34,36.14-15.83,38.61-0.12.19-3.49,5.78-7.18,5.95-4.72.22-5.15-3.77-3-8.7l8.61-19.73s3.58-8.4-7.51-7.66a1.28,1.28,0,0,0-1.38,1c-2.9,10.75-9.39,23.85-10.44,28.65-1.89,3-4.95,6.36-9.19,6.4-4.72,0-5.15-3.77-3-8.7l8.61-19.73s2.9-7-4.53-7.61c-5.83-.46-6.52.39-12.08,0.54a0.47,0.47,0,0,0-.41.36c-1,2.16.5,5.49,4.58,6a4.51,4.51,0,0,0,2.24-.22h0c-0.36,1-8.72,20.19-9.23,23.39-1.1,6.9,4,10.53,9.41,10.53s9.89-1.28,13.69-6.3h0c1.1,4.15,5.07,6.31,9.25,6.31,5.39,0,8.81-2,10.72-4.19a11.4,11.4,0,0,0,1.28-1.78c1.26,4,4.94,6,9,6,5.39,0,8.81-2,10.72-4.19a11.44,11.44,0,0,0,1.46-2.11,7.6,7.6,0,0,0,.89,2,9.56,9.56,0,0,0,8.4,4.29c5.39,0,8.81-2,10.72-4.19a11.54,11.54,0,0,0,1.77-2.74c1.61,4.2,5.06,6.92,10.46,6.92a11.28,11.28,0,0,0,8.09-3l-9.34,20s-3.58,8.4,7.51,7.66a1.23,1.23,0,0,0,1.38-1c2.33-11.26,22.9-56.11,22.9-56.11S510.74,378.19,499.65,378.93Zm-11.23,28c-0.88,1.75-3.45,6.17-7.29,7.05a12.22,12.22,0,0,1-3,.18,3.92,3.92,0,0,1-2.24-1.19c-2-2.12-1.57-7.07-.53-10.85,4.44-16.09,11.79-17.9,14.66-17.38a5.44,5.44,0,0,1,4.86,5.47Z" transform="translate(-231.04 -242.38)"/></g></svg>
